<?xml version="1.0" encoding="UTF-8"?>
<!DOCTYPE svg PUBLIC "-//W3C//DTD SVG 1.1//EN" "http://www.w3.org/Graphics/SVG/1.1/DTD/svg11.dtd">
<!-- Creator: CorelDRAW X8 -->
<svg xmlns="http://www.w3.org/2000/svg" xml:space="preserve" width="3.76996in" height="0.83135in" version="1.1" style="shape-rendering:geometricPrecision; text-rendering:geometricPrecision; image-rendering:optimizeQuality; fill-rule:evenodd; clip-rule:evenodd"
viewBox="0 0 2303 508"
 xmlns:xlink="http://www.w3.org/1999/xlink">
 <defs>
  <style type="text/css">
   <![CDATA[
    .fil8 {fill:#4B8933;fill-rule:nonzero}
    .fil6 {fill:#529538;fill-rule:nonzero}
    .fil9 {fill:#59382A;fill-rule:nonzero}
    .fil7 {fill:#60A044;fill-rule:nonzero}
    .fil0 {fill:#64B542;fill-rule:nonzero}
    .fil1 {fill:#6B4436;fill-rule:nonzero}
    .fil10 {fill:#895950;fill-rule:nonzero}
    .fil4 {fill:#C75E14;fill-rule:nonzero}
    .fil3 {fill:#D07D44;fill-rule:nonzero}
    .fil2 {fill:#D38B52;fill-rule:nonzero}
    .fil5 {fill:#C75E14;fill-rule:nonzero;fill-opacity:0.231373}
   ]]>
  </style>
 </defs>
 <g id="Layer_x0020_1">
  <metadata id="CorelCorpID_0Corel-Layer"/>
  <g id="_3142464804736">
   <path class="fil0" d="M478 289c4,11 10,20 17,26 7,6 15,9 23,9 9,0 16,-3 22,-8 6,-5 8,-12 8,-20 0,-6 -2,-12 -6,-17 -4,-5 -11,-10 -21,-15l-9 -5c-21,-11 -33,-19 -37,-22 -9,-8 -15,-15 -19,-23 -3,-7 -5,-16 -5,-26 0,-22 7,-40 22,-54 15,-14 34,-21 58,-21 17,0 31,4 44,11 12,8 22,19 29,33l-26 18c-4,-11 -10,-19 -17,-24 -7,-6 -16,-9 -25,-9 -8,0 -15,3 -20,8 -6,5 -8,11 -8,19 0,6 2,12 6,17 5,4 13,10 26,16l4 3c23,11 37,19 42,23 9,7 15,14 19,22 3,8 5,17 5,27 0,23 -8,41 -23,55 -16,14 -37,21 -62,21 -18,0 -34,-4 -47,-11 -14,-8 -25,-19 -32,-34l32 -19zm226 -56c0,29 5,51 14,67 9,16 22,25 38,25 17,0 30,-9 39,-25 9,-16 14,-38 14,-67 0,-28 -5,-51 -14,-67 -9,-16 -22,-24 -39,-24 -16,0 -29,8 -38,24 -9,16 -14,39 -14,67zm52 -119c16,0 31,2 46,7 15,6 27,13 38,22 12,12 22,25 29,40 6,15 9,32 9,51 0,18 -3,34 -10,49 -6,16 -16,29 -28,40 -11,10 -23,17 -38,22 -14,5 -30,8 -46,8 -15,0 -31,-3 -45,-8 -15,-5 -27,-12 -38,-22 -13,-11 -22,-25 -29,-40 -6,-15 -9,-32 -9,-50 0,-18 3,-35 10,-50 6,-15 16,-29 28,-40 11,-9 23,-17 38,-22 14,-5 29,-7 45,-7zm162 233l0 -229 100 0c29,0 52,6 68,19 17,12 25,30 25,51 0,16 -5,29 -14,39 -9,10 -22,18 -40,22l56 98 -72 0 -56 -116 14 0c16,0 28,-4 36,-10 8,-7 11,-17 11,-31 0,-15 -3,-26 -12,-33 -8,-7 -20,-10 -37,-10l-16 0 0 200 -63 0zm456 -36c-15,14 -33,24 -52,31 -19,7 -39,11 -60,11 -16,0 -31,-2 -45,-7 -13,-4 -26,-11 -36,-20 -15,-11 -26,-25 -33,-41 -7,-15 -10,-33 -10,-53 0,-17 3,-33 10,-49 8,-16 18,-30 30,-41 12,-9 24,-16 38,-21 15,-5 30,-8 46,-8 21,0 40,4 55,13 16,8 29,21 41,39l-29 21c-7,-15 -16,-26 -26,-33 -10,-8 -21,-11 -34,-11 -20,0 -35,8 -46,24 -11,16 -16,38 -16,67 0,27 6,48 18,65 12,16 28,24 48,24 7,0 14,-1 20,-3 7,-2 13,-5 19,-10l0 -64 62 0 0 66zm36 -193l64 0 0 136c0,22 4,38 10,47 6,10 17,14 32,14 15,0 26,-4 32,-14 6,-9 10,-24 10,-47l0 -136 32 0 0 146c0,30 -7,52 -22,67 -15,15 -38,22 -68,22 -13,0 -26,-2 -39,-7 -12,-4 -22,-10 -29,-17 -8,-8 -14,-16 -17,-26 -3,-9 -5,-22 -5,-39l0 -146zm233 229l0 -229 60 0 52 124 51 -124 63 0 0 229 -64 0 0 -150 -62 150 -6 0 -61 -144 0 144 -33 0zm410 0l-62 -113 69 -116 34 0 -50 84 80 145 -71 0zm-129 0l0 -229 64 0 0 229 -64 0zm199 -229l64 0 0 136c0,22 4,38 10,47 6,10 17,14 32,14 15,0 26,-4 32,-14 6,-9 10,-24 10,-47l0 -136 32 0 0 146c0,30 -7,52 -22,67 -15,15 -38,22 -68,22 -13,0 -26,-2 -39,-7 -12,-4 -22,-10 -29,-17 -8,-8 -14,-16 -17,-26 -3,-9 -5,-22 -5,-39l0 -146z"/>
   <path class="fil1" d="M493 506l-20 -36 22 -37 11 0 -16 26 25 47 -22 0zm-42 0l0 -73 21 0 0 73 -21 0zm143 0l0 -73 46 0 0 9 -26 0 0 22 24 0 0 10 -24 0 0 22 27 0 0 10 -47 0zm137 0l0 -73 19 0 17 39 16 -39 20 0 0 73 -20 0 0 -48 -20 48 -2 0 -20 -46 0 46 -10 0zm185 0l-21 0 0 -73 21 0 0 73zm104 0l0 -64 -20 0 0 -9 60 0 0 9 -19 0 0 64 -21 0zm124 0l0 -73 32 0c10,0 17,2 22,6 5,4 8,9 8,16 0,5 -1,9 -4,13 -3,3 -7,5 -13,6l18 32 -23 0 -18 -37 4 0c5,0 9,-1 12,-4 2,-2 3,-5 3,-9 0,-5 -1,-9 -3,-11 -3,-2 -7,-3 -12,-3l-6 0 0 64 -20 0zm162 -31l18 0 -10 -26 -8 26zm-21 31l25 -73 20 0 27 73 -22 0 -8 -22 -25 0 -7 22 -10 0zm166 -31l18 0 -9 -26 -9 26zm-21 31l26 -73 20 0 26 73 -21 0 -8 -22 -25 0 -7 22 -11 0zm155 0l0 -73 23 0 24 37 0 -37 11 0 0 73 -12 0 -35 -54 0 54 -11 0zm185 -73l20 0 0 43c0,7 2,12 4,15 2,3 5,5 10,5 5,0 8,-2 10,-5 2,-3 3,-8 3,-15l0 -43 11 0 0 46c0,10 -3,17 -8,22 -4,5 -12,7 -21,7 -5,0 -9,-1 -13,-2 -4,-2 -7,-4 -9,-6 -3,-2 -5,-5 -6,-8 -1,-3 -1,-7 -1,-13l0 -46zm149 73l0 -73 19 0 17 39 16 -39 20 0 0 73 -20 0 0 -48 -20 48 -2 0 -19 -46 0 46 -11 0zm206 0l-20 -36 22 -37 11 0 -16 26 25 47 -22 0zm-42 0l0 -73 21 0 0 73 -21 0zm143 0l0 -73 19 0 17 39 16 -39 20 0 0 73 -20 0 0 -48 -20 48 -2 0 -20 -46 0 46 -10 0z"/>
  </g>
  <g id="_3142464804384">
   <path class="fil2" d="M313 489l14 -311 -327 0 14 311c0,11 9,19 19,19l261 0c10,0 19,-8 19,-19z"/>
   <g>
    <path class="fil3" d="M233 29c-17,-23 -72,-46 -128,-11 0,0 -20,30 -1,20 16,-8 37,-19 62,-18 20,2 40,6 62,20 10,6 13,-2 5,-11z"/>
    <path class="fil4" d="M56 178c0,0 -1,-158 76,-172 0,0 -59,53 -41,172l-35 0z"/>
    <path class="fil4" d="M271 178c0,0 2,-158 -76,-174 0,0 60,55 41,174l35 0z"/>
   </g>
   <g>
    <path class="fil4" d="M326 216c1,0 2,-2 0,-3 0,0 0,0 0,0l-22 0c-1,0 -1,2 0,2 0,1 0,1 0,1l22 0zm-321 -3c-2,0 -2,2 -1,2 0,1 0,1 1,1l21 0c1,0 2,-2 1,-3 -1,0 -1,0 -1,0l-21 0zm42 0c-1,0 -1,2 0,2 0,1 0,1 0,1l22 0c1,0 1,-2 0,-3 0,0 0,0 0,0l-22 0zm43 0c-1,0 -1,2 0,2 0,1 0,1 0,1l22 0c1,0 1,-2 0,-3 0,0 0,0 0,0l-22 0zm43 0c-1,0 -2,2 -1,2 1,1 1,1 1,1l21 0c2,0 2,-2 1,-3 0,0 0,0 -1,0l-21 0zm43 0c-1,0 -2,2 -1,2 1,1 1,1 1,1l21 0c2,0 2,-2 1,-3 0,0 0,0 -1,0l-21 0zm43 0c-1,0 -2,2 -1,2 0,1 0,1 1,1l21 0c1,0 2,-2 1,-3 0,0 0,0 -1,0l-21 0zm43 0c-2,0 -2,2 -1,2 0,1 0,1 1,1l21 0c1,0 2,-2 1,-3 -1,0 -1,0 -1,0l-21 0z"/>
    <path class="fil4" d="M54 214c0,0 0,0 1,1 0,0 2,0 2,-1l0 -22c0,0 -1,0 -1,-1 0,0 -2,0 -2,1l0 22zm39 -2c0,0 0,0 0,1 1,0 2,0 2,-1l0 -22c0,0 0,0 0,-1 -1,0 -2,0 -2,1l0 22zm-9 -32c1,0 2,-2 1,-3 0,0 0,0 -1,0l-21 0c-1,0 -2,2 -1,2 0,0 1,1 1,1l21 0z"/>
    <path class="fil4" d="M233 214c0,0 0,0 0,1 1,0 2,0 2,-1l0 -22c0,0 0,0 0,-1 -1,0 -2,0 -2,1l0 22zm38 -2c0,0 0,0 0,1 1,0 2,0 2,-1l0 -22c0,0 0,0 0,-1 -1,0 -2,0 -2,1l0 22zm-8 -32c1,0 1,-2 0,-3 0,0 0,0 0,0l-22 0c-1,0 -1,2 0,2 0,0 0,1 0,1l22 0z"/>
    <path class="fil4" d="M92 178c1,-1 -1,-3 -2,-2l-10 10c-1,1 1,3 2,2l10 -10zm-32 29c-1,1 1,3 2,2l10 -11c1,-1 -1,-3 -2,-1l-10 10z"/>
    <path class="fil4" d="M56 177c-1,-1 -2,1 -1,2l10 10c1,1 3,-1 2,-2l-11 -10zm30 31c1,1 3,0 2,-1l-11 -10c-1,-1 -2,1 -1,2l10 9z"/>
    <path class="fil4" d="M273 180c1,-1 -1,-3 -2,-2l-10 10c-1,1 0,3 1,2l11 -10zm-33 27c-2,1 0,3 1,2l11 -10c1,-1 -1,-3 -2,-2l-10 10z"/>
    <path class="fil4" d="M235 178c-1,-1 -3,1 -2,2l11 10c1,1 2,-1 1,-2l-10 -10zm30 31c1,1 3,-1 1,-2l-10 -10c-1,-1 -3,1 -2,2l11 10z"/>
   </g>
   <path class="fil5" d="M180 486l114 22 -261 0c-11,0 -19,-8 -19,-19l-12 -275 296 0 -160 69c-19,8 -33,22 -42,40l-25 52c-4,7 -1,16 6,20l34 17c10,6 11,19 2,26l-7 5c-7,5 -8,14 -4,21l17 23c3,5 9,7 15,6l40 -7c2,-1 4,-1 6,0z"/>
  </g>
  <g id="_3142464809056">
   <g>
    <path class="fil0" d="M133 360c-3,-5 -6,-10 -10,-14l-19 -2c1,8 2,18 7,27 10,20 41,70 41,70 0,0 -10,-61 -19,-81z"/>
    <path class="fil6" d="M133 360c-3,-5 -6,-10 -10,-14l-11 -1 40 96c0,0 -10,-61 -19,-81z"/>
    <path class="fil0" d="M104 344c0,0 -32,26 -41,44 0,0 42,-19 60,-42l-19 -2z"/>
    <path class="fil7" d="M123 346l-9 -1 -51 43c0,0 42,-19 60,-42z"/>
   </g>
   <g>
    <path class="fil0" d="M169 359c3,-4 5,-8 8,-11l17 -2c-1,7 -3,15 -7,23 -9,16 -37,58 -37,58 0,0 10,-51 19,-68z"/>
    <path class="fil6" d="M169 359c3,-4 5,-8 8,-11l10 -1 -37 80c0,0 10,-51 19,-68z"/>
    <path class="fil0" d="M194 346c0,0 26,23 33,39 0,0 -35,-18 -50,-37l17 -2z"/>
    <path class="fil7" d="M177 348l8 -1 42 38c0,0 -35,-18 -50,-37z"/>
   </g>
   <g>
    <path class="fil0" d="M182 295l4 5c-4,2 -6,5 -9,7 -3,3 -6,6 -8,9 0,1 -1,2 -2,3l-1 2 -2 2c0,1 -1,2 -1,3 -2,3 -4,7 -5,11 -2,3 -3,7 -4,11 -1,4 -2,7 -2,11 -1,2 -1,4 -1,6 0,2 -1,4 -1,6 0,4 0,8 -1,12 0,4 0,8 0,12 1,4 1,8 1,12 1,8 2,16 3,24 2,8 3,15 5,23 1,4 2,8 3,12 1,2 1,4 2,6 0,2 1,3 2,5l-6 2c-1,-2 -2,-4 -2,-5 -1,-2 -1,-4 -2,-6 -1,-4 -2,-8 -3,-12 -2,-8 -4,-16 -5,-24 -2,-8 -3,-16 -3,-25 -1,-4 -1,-8 -1,-12 0,-4 0,-8 0,-12 0,-4 0,-8 1,-12 0,-3 0,-5 0,-7 1,-2 1,-4 1,-6 1,-4 2,-8 3,-12 1,-4 2,-8 4,-12 1,-4 3,-7 5,-11 1,-1 1,-2 2,-3l1 -3 2 -2c1,-1 1,-2 2,-3 2,-3 5,-6 8,-9 3,-3 6,-6 10,-8z"/>
    <path class="fil8" d="M162 478c-3,-7 -5,-15 -7,-23 -2,-8 -4,-16 -5,-24 -1,-8 -2,-16 -3,-24 0,-4 0,-8 -1,-12 0,-4 0,-8 0,-12 0,-4 1,-8 1,-12 0,-2 0,-4 1,-6 0,-2 0,-4 1,-6 0,-4 1,-8 2,-12 1,-4 3,-8 4,-12 1,-3 3,-7 5,-11 1,0 1,-1 2,-2l1 -3 2 -2c0,-1 1,-2 2,-3 2,-3 5,-6 8,-9 2,-3 6,-5 9,-8l-2 -2c-4,2 -7,5 -10,8 -3,3 -6,6 -8,9 -1,1 -1,2 -2,3l-2 2 -1 3c-1,1 -1,2 -2,3 -2,4 -4,7 -5,11 -2,4 -3,8 -4,12 -1,4 -2,8 -3,12 0,2 0,4 -1,6 0,2 0,4 0,7 -1,4 -1,8 -1,12 0,4 0,8 0,12 0,4 0,8 1,12 0,9 1,17 3,25 1,8 3,16 5,24 1,4 2,8 3,12 1,2 1,4 2,6 0,1 1,3 2,5l3 -1z"/>
   </g>
   <g>
    <g>
     <g>
      <path class="fil9" d="M184 297c-1,2 -4,2 -6,1 -2,-2 -2,-5 -1,-7 2,-2 5,-2 7,-1 2,2 2,5 0,7z"/>
      <path class="fil1" d="M184 290c-1,0 -1,0 -2,-1 -1,1 -2,1 -2,2 -2,2 -2,5 0,7 1,0 1,0 2,1 1,-1 2,-1 2,-2 2,-2 2,-5 0,-7z"/>
      <path class="fil10" d="M184 295c0,0 -1,0 -2,0 -1,-1 -1,-2 0,-3 0,0 2,0 2,0 1,1 1,2 0,3z"/>
     </g>
     <g>
      <path class="fil9" d="M166 285c-2,2 -5,2 -7,1 -2,-2 -2,-5 0,-7 2,-2 5,-2 7,0 2,1 2,4 0,6z"/>
      <path class="fil1" d="M166 279c-1,-1 -2,-1 -2,-2 -1,1 -2,1 -3,2 -2,2 -2,5 0,7 1,0 2,0 3,1 0,-1 1,-1 2,-2 2,-2 2,-5 0,-6z"/>
      <path class="fil10" d="M166 283c-1,0 -2,0 -3,0 0,-1 0,-2 0,-3 1,0 2,0 3,0 0,1 0,2 0,3z"/>
     </g>
     <g>
      <path class="fil9" d="M168 293c-2,2 -5,2 -7,0 -2,-2 -2,-5 0,-7 2,-2 5,-2 7,0 2,2 2,5 0,7z"/>
      <path class="fil1" d="M168 286c-1,-1 -2,-1 -3,-1 0,0 -1,1 -2,1 -2,2 -2,5 0,7 1,1 2,1 2,1 1,0 2,-1 3,-1 2,-2 2,-5 0,-7z"/>
      <path class="fil10" d="M168 290c-1,1 -2,1 -3,0 0,0 0,-2 0,-2 1,-1 2,-1 3,0 0,0 0,1 0,2z"/>
     </g>
     <g>
      <path class="fil9" d="M171 300c-2,2 -5,2 -7,1 -2,-2 -2,-5 -1,-7 2,-2 5,-2 7,-1 2,2 2,5 1,7z"/>
      <path class="fil1" d="M170 293c0,0 -1,0 -2,-1 -1,1 -2,1 -2,2 -2,2 -2,5 0,7 1,0 1,0 2,1 1,-1 2,-1 3,-2 1,-2 1,-5 -1,-7z"/>
      <path class="fil10" d="M170 298c0,0 -1,0 -2,0 -1,-1 -1,-2 0,-3 1,0 2,0 2,0 1,1 1,2 0,3z"/>
     </g>
     <g>
      <path class="fil9" d="M173 285c-2,2 -5,2 -7,0 -2,-1 -2,-4 0,-6 2,-2 5,-2 7,-1 2,2 2,5 0,7z"/>
      <path class="fil1" d="M173 278c-1,0 -2,-1 -2,-1 -1,0 -2,1 -3,2 -2,2 -1,5 1,6 0,1 1,1 2,1 1,0 1,0 2,-1 2,-2 2,-5 0,-7z"/>
      <path class="fil10" d="M173 282c-1,1 -2,1 -2,1 -1,-1 -1,-2 -1,-3 1,-1 2,-1 3,0 1,1 1,2 0,2z"/>
     </g>
     <g>
      <path class="fil9" d="M177 292c-1,2 -4,2 -6,0 -2,-2 -2,-5 -1,-7 2,-2 5,-2 7,0 2,2 2,5 0,7z"/>
      <path class="fil1" d="M177 285c-1,-1 -1,-1 -2,-1 -1,0 -2,1 -2,1 -2,2 -2,5 0,7 0,1 1,1 2,1 1,0 2,0 2,-1 2,-2 2,-5 0,-7z"/>
      <path class="fil10" d="M177 289c0,1 -1,1 -2,0 -1,0 -1,-1 0,-2 0,-1 1,-1 2,0 1,0 1,2 0,2z"/>
     </g>
     <g>
      <path class="fil9" d="M181 285c-2,2 -5,2 -7,0 -1,-1 -2,-5 0,-6 2,-2 5,-3 7,-1 2,2 2,5 0,7z"/>
      <path class="fil1" d="M181 278c-1,0 -2,-1 -2,-1 -1,0 -2,1 -3,2 -1,1 -1,4 1,6 0,1 1,1 2,1 1,0 2,0 2,-1 2,-2 2,-5 0,-7z"/>
      <path class="fil10" d="M181 282c-1,1 -2,1 -2,0 -1,0 -1,-1 0,-2 0,-1 1,-1 2,0 1,1 1,2 0,2z"/>
     </g>
     <g>
      <path class="fil9" d="M175 298c-2,2 -5,2 -7,0 -2,-1 -2,-4 0,-6 2,-2 5,-2 7,-1 2,2 2,5 0,7z"/>
      <path class="fil1" d="M175 291c-1,0 -2,-1 -2,-1 -1,0 -2,1 -3,2 -2,2 -1,5 0,6 1,1 2,1 3,2 0,-1 1,-1 2,-2 2,-2 2,-5 0,-7z"/>
      <path class="fil10" d="M175 296c-1,0 -2,0 -3,0 0,-1 0,-2 0,-3 1,0 2,-1 3,0 0,1 1,2 0,3z"/>
     </g>
     <g>
      <path class="fil9" d="M181 302c-2,2 -5,2 -7,1 -2,-2 -2,-5 0,-7 1,-2 4,-2 6,0 2,1 2,4 1,6z"/>
      <path class="fil1" d="M180 296c0,-1 -1,-1 -2,-2 -1,1 -1,1 -2,2 -2,2 -2,5 0,7 1,0 2,1 2,1 1,0 2,-1 3,-2 1,-2 1,-5 -1,-6z"/>
      <path class="fil10" d="M181 300c-1,0 -2,0 -3,0 0,-1 -1,-2 0,-3 1,0 2,0 2,0 1,1 1,2 1,3z"/>
     </g>
     <g>
      <path class="fil9" d="M177 307c-2,2 -5,2 -7,0 -2,-2 -2,-5 0,-7 2,-2 5,-2 7,0 1,2 2,5 0,7z"/>
      <path class="fil1" d="M177 300c-1,-1 -2,-1 -3,-1 0,0 -1,0 -2,1 -2,2 -2,5 0,7 1,0 2,1 2,1 1,0 2,-1 3,-1 2,-2 1,-5 0,-7z"/>
      <path class="fil10" d="M177 304c-1,1 -2,1 -3,0 0,0 0,-2 0,-2 1,-1 2,-1 3,0 0,0 0,1 0,2z"/>
     </g>
     <g>
      <path class="fil9" d="M184 309c-1,2 -4,2 -6,1 -2,-2 -3,-5 -1,-7 2,-2 5,-2 7,-1 2,2 2,5 0,7z"/>
      <path class="fil1" d="M184 302c-1,0 -1,0 -2,-1 -1,1 -2,1 -3,2 -1,2 -1,5 1,7 0,0 1,0 2,1 1,-1 2,-1 2,-2 2,-2 2,-5 0,-7z"/>
      <path class="fil10" d="M184 307c0,0 -2,0 -2,0 -1,-1 -1,-2 0,-3 0,0 1,0 2,0 1,1 1,2 0,3z"/>
     </g>
     <g>
      <path class="fil9" d="M191 313c-2,2 -5,2 -7,0 -2,-2 -2,-5 0,-7 2,-2 5,-2 7,0 2,2 2,5 0,7z"/>
      <path class="fil1" d="M191 306c-1,0 -2,-1 -3,-1 0,0 -1,1 -2,1 -2,2 -2,5 0,7 1,1 2,1 2,1 1,0 2,0 3,-1 2,-2 2,-5 0,-7z"/>
      <path class="fil10" d="M191 310c-1,1 -2,1 -3,0 0,0 0,-1 0,-2 1,-1 2,-1 3,0 0,0 0,2 0,2z"/>
     </g>
     <g>
      <path class="fil9" d="M192 308c-2,2 -5,2 -7,0 -2,-2 -2,-5 0,-7 2,-2 5,-2 7,0 2,2 2,5 0,7z"/>
      <path class="fil1" d="M192 301c-1,-1 -2,-1 -2,-1 -1,0 -2,1 -3,1 -1,2 -1,5 1,7 0,1 1,1 2,1 1,0 1,-1 2,-1 2,-2 2,-5 0,-7z"/>
      <path class="fil10" d="M192 305c-1,1 -2,1 -2,0 -1,0 -1,-1 0,-2 0,-1 1,-1 2,0 1,0 1,1 0,2z"/>
     </g>
     <g>
      <path class="fil9" d="M160 293c-2,2 -5,2 -7,0 -2,-2 -2,-5 0,-6 2,-2 5,-3 7,-1 2,2 2,5 0,7z"/>
      <path class="fil1" d="M160 286c-1,0 -2,-1 -2,-1 -1,0 -2,1 -3,2 -2,1 -1,4 1,6 0,1 1,1 2,1 1,0 1,0 2,-1 2,-2 2,-5 0,-7z"/>
      <path class="fil10" d="M160 290c-1,1 -2,1 -2,0 -1,0 -1,-1 -1,-2 1,-1 2,-1 3,0 1,1 1,2 0,2z"/>
     </g>
     <g>
      <path class="fil9" d="M188 301c-2,2 -5,2 -7,1 -2,-2 -2,-5 0,-7 2,-2 5,-2 7,-1 2,2 2,5 0,7z"/>
      <path class="fil1" d="M188 294c-1,0 -2,0 -2,-1 -1,1 -2,1 -3,2 -2,2 -1,5 1,7 0,0 1,0 2,1 1,-1 1,-1 2,-2 2,-2 2,-5 0,-7z"/>
      <path class="fil10" d="M188 299c-1,0 -2,0 -2,0 -1,-1 -1,-2 -1,-3 1,0 2,0 3,0 1,1 1,2 0,3z"/>
     </g>
     <g>
      <path class="fil9" d="M200 307c-1,1 -4,2 -6,0 -2,-2 -2,-5 -1,-7 2,-2 5,-2 7,0 2,2 2,5 0,7z"/>
      <path class="fil1" d="M200 300c-1,-1 -1,-1 -2,-1 -1,0 -2,0 -2,1 -2,2 -2,5 0,7 1,0 1,1 2,1 1,0 2,-1 2,-1 2,-2 2,-5 0,-7z"/>
      <path class="fil10" d="M200 304c0,1 -1,1 -2,0 -1,-1 -1,-2 0,-2 0,-1 2,-1 2,0 1,0 1,1 0,2z"/>
     </g>
     <g>
      <path class="fil9" d="M205 298c-2,2 -5,2 -7,1 -2,-2 -2,-5 0,-7 1,-2 4,-2 6,0 2,1 2,4 1,6z"/>
      <path class="fil1" d="M204 292c0,-1 -1,-1 -2,-1 -1,0 -1,0 -2,1 -2,2 -2,5 0,7 1,0 2,1 2,1 1,0 2,-1 3,-2 1,-2 1,-5 -1,-6z"/>
      <path class="fil10" d="M205 296c-1,0 -2,1 -3,0 0,-1 -1,-2 0,-2 1,-1 2,-1 2,-1 1,1 1,2 1,3z"/>
     </g>
     <g>
      <path class="fil9" d="M198 291c-1,2 -4,3 -6,1 -2,-2 -2,-5 -1,-7 2,-2 5,-2 7,0 2,1 2,4 0,6z"/>
      <path class="fil1" d="M198 285c0,-1 -1,-1 -2,-1 -1,0 -2,0 -2,1 -2,2 -2,5 0,7 1,0 1,1 2,1 1,0 2,-1 2,-2 2,-2 2,-5 0,-6z"/>
      <path class="fil10" d="M198 289c0,1 -1,1 -2,0 -1,-1 -1,-2 0,-2 0,-1 2,-1 2,-1 1,1 1,2 0,3z"/>
     </g>
     <g>
      <path class="fil9" d="M192 286c-1,2 -4,2 -6,0 -2,-1 -2,-4 -1,-6 2,-2 5,-2 7,-1 2,2 2,5 0,7z"/>
      <path class="fil1" d="M192 279c-1,0 -1,-1 -2,-1 -1,0 -2,1 -2,2 -2,2 -2,5 0,6 1,1 1,1 2,1 1,0 2,0 2,-1 2,-2 2,-5 0,-7z"/>
      <path class="fil10" d="M192 283c0,1 -1,1 -2,1 -1,-1 -1,-2 0,-3 0,-1 2,-1 2,0 1,1 1,2 0,2z"/>
     </g>
     <g>
      <path class="fil9" d="M185 280c-2,2 -5,2 -7,0 -2,-1 -2,-4 0,-6 2,-2 5,-3 7,-1 2,2 2,5 0,7z"/>
      <path class="fil1" d="M185 273c-1,0 -2,-1 -2,-1 -1,0 -2,1 -3,2 -1,2 -1,5 1,6 0,1 1,1 2,1 1,0 1,0 2,-1 2,-2 2,-5 0,-7z"/>
      <path class="fil10" d="M185 277c-1,1 -2,1 -2,1 -1,-1 -1,-2 0,-3 0,-1 1,-1 2,0 1,1 1,2 0,2z"/>
     </g>
     <g>
      <path class="fil9" d="M174 272c-2,1 -5,2 -7,0 -1,-2 -2,-5 0,-7 2,-2 5,-2 7,0 2,2 2,5 0,7z"/>
      <path class="fil1" d="M174 265c-1,-1 -2,-1 -2,-1 -1,0 -2,0 -3,1 -1,2 -1,5 1,7 0,0 1,1 2,1 1,0 2,-1 2,-1 2,-2 2,-5 0,-7z"/>
      <path class="fil10" d="M174 269c-1,1 -2,1 -2,0 -1,-1 -1,-2 0,-2 0,-1 1,-1 2,0 1,0 1,1 0,2z"/>
     </g>
     <g>
      <path class="fil9" d="M179 274c-1,2 -4,2 -6,1 -2,-2 -2,-5 -1,-7 2,-2 5,-2 7,-1 2,2 2,5 0,7z"/>
      <path class="fil1" d="M179 267c-1,0 -1,0 -2,-1 -1,1 -2,1 -2,2 -2,2 -2,5 0,7 0,0 1,0 2,1 1,-1 2,-1 2,-2 2,-2 2,-5 0,-7z"/>
      <path class="fil10" d="M179 272c0,0 -1,0 -2,0 -1,-1 -1,-2 0,-3 0,0 1,0 2,0 1,1 1,2 0,3z"/>
     </g>
     <g>
      <path class="fil9" d="M164 294c-1,2 -4,2 -6,0 -2,-1 -2,-4 -1,-6 2,-2 5,-3 7,-1 2,2 2,5 0,7z"/>
      <path class="fil1" d="M164 287c-1,0 -1,-1 -2,-1 -1,0 -2,1 -2,2 -2,2 -2,5 0,6 1,1 1,1 2,1 1,0 2,0 2,-1 2,-2 2,-5 0,-7z"/>
      <path class="fil10" d="M164 291c0,1 -1,1 -2,1 -1,-1 -1,-2 0,-3 0,-1 1,-1 2,0 1,1 1,2 0,2z"/>
     </g>
     <g>
      <path class="fil9" d="M191 294c-1,2 -4,2 -6,0 -2,-1 -2,-4 -1,-6 2,-2 5,-2 7,-1 2,2 2,5 0,7z"/>
      <path class="fil1" d="M191 287c-1,0 -1,-1 -2,-1 -1,1 -2,1 -3,2 -1,2 -1,5 1,6 0,1 1,1 2,2 1,-1 2,-1 2,-2 2,-2 2,-5 0,-7z"/>
      <path class="fil10" d="M191 292c0,0 -1,0 -2,0 -1,-1 -1,-2 0,-3 0,0 1,0 2,0 1,1 1,2 0,3z"/>
     </g>
     <g>
      <path class="fil9" d="M178 279c-2,2 -5,2 -7,0 -2,-2 -2,-5 0,-6 1,-2 4,-3 6,-1 2,2 3,5 1,7z"/>
      <path class="fil1" d="M177 272c0,0 -1,-1 -2,-1 -1,0 -1,1 -2,2 -2,1 -2,4 0,6 1,1 2,1 2,1 1,0 2,0 3,-1 2,-2 1,-5 -1,-7z"/>
      <path class="fil10" d="M178 276c-1,1 -2,1 -3,0 0,0 0,-1 0,-2 1,-1 2,-1 3,0 0,1 0,2 0,2z"/>
     </g>
     <g>
      <path class="fil9" d="M185 290c-1,2 -4,2 -6,0 -2,-2 -3,-5 -1,-7 2,-2 5,-2 7,0 2,2 2,5 0,7z"/>
      <path class="fil1" d="M185 283c-1,-1 -1,-1 -2,-1 -1,0 -2,1 -3,1 -1,2 -1,5 1,7 0,1 1,1 2,1 1,0 2,-1 2,-1 2,-2 2,-5 0,-7z"/>
      <path class="fil10" d="M185 287c0,1 -1,1 -2,0 -1,0 -1,-1 0,-2 0,-1 1,-1 2,0 1,0 1,1 0,2z"/>
     </g>
     <g>
      <path class="fil9" d="M159 285c-2,2 -5,3 -7,1 -2,-2 -2,-5 0,-7 2,-2 5,-2 7,0 2,1 2,5 0,6z"/>
      <path class="fil1" d="M159 279c-1,-1 -2,-1 -3,-1 0,0 -1,0 -2,1 -2,2 -2,5 0,7 1,0 2,1 2,1 1,0 2,-1 3,-2 2,-1 2,-5 0,-6z"/>
      <path class="fil10" d="M159 283c-1,1 -2,1 -3,0 0,-1 0,-2 0,-2 1,-1 2,-1 3,0 0,0 0,1 0,2z"/>
     </g>
     <g>
      <path class="fil9" d="M169 278c-2,2 -5,2 -7,0 -2,-2 -2,-5 0,-6 2,-2 5,-3 7,-1 2,2 2,5 0,7z"/>
      <path class="fil1" d="M169 271c-1,0 -2,-1 -2,-1 -1,0 -2,1 -3,1 -2,2 -1,5 1,7 0,1 1,1 2,1 1,0 1,0 2,-1 2,-2 2,-5 0,-7z"/>
      <path class="fil10" d="M169 275c-1,1 -2,1 -2,0 -1,0 -1,-1 -1,-2 1,-1 2,-1 3,0 1,1 1,2 0,2z"/>
     </g>
     <g>
      <path class="fil9" d="M196 299c-2,2 -5,3 -7,1 -2,-2 -2,-5 0,-7 2,-2 5,-2 7,0 2,1 2,4 0,6z"/>
      <path class="fil1" d="M196 293c-1,-1 -2,-1 -2,-1 -1,0 -2,0 -3,1 -2,2 -1,5 1,7 0,0 1,1 2,1 1,0 1,-1 2,-2 2,-2 2,-5 0,-6z"/>
      <path class="fil10" d="M196 297c-1,1 -2,1 -2,0 -1,-1 -1,-2 -1,-2 1,-1 2,-1 3,-1 1,1 1,2 0,3z"/>
     </g>
     <g>
      <path class="fil9" d="M199 314c-2,2 -5,2 -7,0 -2,-1 -2,-4 0,-6 2,-2 5,-2 7,-1 2,2 2,5 0,7z"/>
      <path class="fil1" d="M199 307c-1,0 -2,-1 -2,-1 -1,0 -2,1 -3,2 -2,2 -1,5 0,6 1,1 2,1 3,1 0,0 1,0 2,-1 2,-2 2,-5 0,-7z"/>
      <path class="fil10" d="M199 311c-1,1 -2,1 -2,1 -1,-1 -1,-2 -1,-3 1,-1 2,-1 3,0 0,1 1,2 0,2z"/>
     </g>
    </g>
    <g>
     <g>
      <path class="fil9" d="M201 281c-2,2 -5,2 -7,0 -2,-2 -2,-5 0,-7 1,-2 4,-2 6,0 2,2 2,5 1,7z"/>
      <path class="fil1" d="M200 274c0,-1 -1,-1 -2,-1 -1,0 -1,1 -2,1 -2,2 -2,5 0,7 1,1 2,1 2,1 1,0 2,0 3,-1 1,-2 1,-5 -1,-7z"/>
      <path class="fil10" d="M201 278c-1,1 -2,1 -3,0 0,0 -1,-1 0,-2 1,-1 2,-1 3,0 0,0 0,2 0,2z"/>
     </g>
     <g>
      <path class="fil9" d="M182 269c-2,2 -5,2 -6,0 -2,-2 -3,-5 -1,-7 2,-2 5,-2 7,0 2,2 2,5 0,7z"/>
      <path class="fil1" d="M182 262c-1,-1 -1,-1 -2,-1 -1,0 -2,1 -3,1 -1,2 -1,5 1,7 0,1 1,1 2,1 1,0 2,0 2,-1 2,-2 2,-5 0,-7z"/>
      <path class="fil10" d="M182 266c0,1 -2,1 -2,0 -1,0 -1,-1 0,-2 0,-1 1,-1 2,0 1,0 1,2 0,2z"/>
     </g>
     <g>
      <path class="fil9" d="M184 276c-2,2 -5,2 -7,1 -1,-2 -2,-5 0,-7 2,-2 5,-2 7,-1 2,2 2,5 0,7z"/>
      <path class="fil1" d="M184 269c-1,0 -1,0 -2,-1 -1,1 -2,1 -3,2 -1,2 -1,5 1,7 0,0 1,0 2,1 1,-1 2,-1 2,-2 2,-2 2,-5 0,-7z"/>
      <path class="fil10" d="M184 274c-1,0 -2,0 -2,0 -1,-1 -1,-2 0,-3 0,0 1,0 2,0 1,1 1,2 0,3z"/>
     </g>
     <g>
      <path class="fil9" d="M187 284c-2,2 -5,2 -7,0 -2,-2 -2,-5 0,-7 2,-2 5,-2 6,0 2,2 3,5 1,7z"/>
      <path class="fil1" d="M186 277c0,-1 -1,-1 -2,-1 0,0 -1,1 -2,1 -2,2 -2,5 0,7 1,1 2,1 2,1 1,0 2,-1 3,-1 2,-2 1,-5 -1,-7z"/>
      <path class="fil10" d="M187 281c-1,1 -2,1 -3,0 0,0 0,-1 0,-2 1,-1 2,-1 3,0 0,0 0,1 0,2z"/>
     </g>
     <g>
      <path class="fil9" d="M189 269c-1,1 -4,2 -6,0 -2,-2 -2,-5 -1,-7 2,-2 5,-2 7,0 2,2 2,5 0,7z"/>
      <path class="fil1" d="M189 262c-1,-1 -1,-1 -2,-1 -1,0 -2,0 -2,1 -2,2 -2,5 0,7 1,0 1,1 2,1 1,0 2,-1 2,-1 2,-2 2,-5 0,-7z"/>
      <path class="fil10" d="M189 266c0,1 -1,1 -2,0 -1,-1 -1,-2 0,-2 0,-1 1,-1 2,0 1,0 1,1 0,2z"/>
     </g>
     <g>
      <path class="fil9" d="M194 275c-2,2 -5,2 -7,1 -2,-2 -2,-5 0,-7 1,-2 4,-2 6,0 2,1 2,4 1,6z"/>
      <path class="fil1" d="M193 269c0,-1 -1,-1 -2,-1 -1,0 -2,0 -2,1 -2,2 -2,5 0,7 1,0 2,1 2,1 1,0 2,-1 3,-2 1,-2 1,-5 -1,-6z"/>
      <path class="fil10" d="M194 273c-1,0 -2,1 -3,0 -1,-1 -1,-2 0,-3 1,0 2,0 2,0 1,1 1,2 1,3z"/>
     </g>
     <g>
      <path class="fil9" d="M197 268c-1,2 -4,3 -6,1 -2,-2 -2,-5 -1,-7 2,-2 5,-2 7,0 2,1 2,4 0,6z"/>
      <path class="fil1" d="M197 262c-1,-1 -1,-1 -2,-1 -1,0 -2,0 -2,1 -2,2 -2,5 0,7 1,0 1,1 2,1 1,0 2,-1 2,-2 2,-2 2,-5 0,-6z"/>
      <path class="fil10" d="M197 266c0,1 -1,1 -2,0 -1,-1 -1,-2 0,-2 0,-1 2,-1 2,-1 1,1 1,2 0,3z"/>
     </g>
     <g>
      <path class="fil9" d="M191 282c-1,2 -4,2 -6,0 -2,-2 -3,-5 -1,-7 2,-2 5,-2 7,0 2,2 2,5 0,7z"/>
      <path class="fil1" d="M191 275c-1,-1 -1,-1 -2,-1 -1,0 -2,1 -3,1 -1,2 -1,5 1,7 0,1 1,1 2,1 1,0 2,-1 2,-1 2,-2 2,-5 0,-7z"/>
      <path class="fil10" d="M191 279c0,1 -2,1 -2,0 -1,0 -1,-2 0,-2 0,-1 1,-1 2,0 1,0 1,1 0,2z"/>
     </g>
     <g>
      <path class="fil9" d="M197 286c-2,2 -5,2 -7,0 -2,-2 -2,-5 0,-7 2,-1 5,-2 7,0 2,2 2,5 0,7z"/>
      <path class="fil1" d="M197 279c-1,0 -2,-1 -2,-1 -1,0 -2,1 -3,1 -2,2 -1,5 1,7 0,1 1,1 2,1 0,0 1,0 2,-1 2,-2 2,-5 0,-7z"/>
      <path class="fil10" d="M197 283c-1,1 -2,1 -2,0 -1,0 -1,-1 -1,-2 1,-1 2,-1 3,0 0,0 1,2 0,2z"/>
     </g>
     <g>
      <path class="fil9" d="M193 290c-2,2 -5,2 -7,0 -2,-1 -2,-4 0,-6 2,-2 5,-2 7,-1 2,2 2,5 0,7z"/>
      <path class="fil1" d="M193 283c-1,0 -2,-1 -2,-1 -1,1 -2,1 -3,2 -1,2 -1,5 1,6 0,1 1,1 2,2 1,-1 1,-1 2,-2 2,-2 2,-5 0,-7z"/>
      <path class="fil10" d="M193 288c-1,0 -2,0 -2,0 -1,-1 -1,-2 0,-3 0,0 1,0 2,0 1,1 1,2 0,3z"/>
     </g>
     <g>
      <path class="fil9" d="M201 293c-2,2 -5,2 -7,0 -2,-2 -2,-5 -1,-7 2,-2 5,-2 7,0 2,2 2,5 1,7z"/>
      <path class="fil1" d="M200 286c0,-1 -1,-1 -2,-1 -1,0 -2,1 -2,1 -2,2 -2,5 0,7 1,1 1,1 2,1 1,0 2,-1 3,-1 1,-2 1,-5 -1,-7z"/>
      <path class="fil10" d="M200 290c0,1 -1,1 -2,0 -1,0 -1,-1 0,-2 1,-1 2,-1 2,0 1,0 1,1 0,2z"/>
     </g>
     <g>
      <path class="fil9" d="M208 291c-1,2 -4,2 -6,1 -2,-2 -2,-5 -1,-7 2,-2 5,-2 7,0 2,1 2,4 0,6z"/>
      <path class="fil1" d="M208 285c-1,-1 -1,-1 -2,-2 -1,1 -2,1 -2,2 -2,2 -2,5 0,7 1,0 1,1 2,1 1,-1 2,-1 2,-2 2,-2 2,-5 0,-6z"/>
      <path class="fil10" d="M208 289c0,0 -1,0 -2,0 -1,-1 -1,-2 0,-3 0,0 2,0 2,0 1,1 1,2 0,3z"/>
     </g>
     <g>
      <path class="fil9" d="M204 285c-1,2 -4,2 -6,0 -2,-2 -2,-5 -1,-7 2,-2 5,-2 7,0 2,2 2,5 0,7z"/>
      <path class="fil1" d="M204 278c-1,-1 -1,-1 -2,-1 -1,0 -2,1 -2,1 -2,2 -2,5 0,7 1,1 1,1 2,1 1,0 2,-1 2,-1 2,-2 2,-5 0,-7z"/>
      <path class="fil10" d="M204 282c0,1 -1,1 -2,0 -1,0 -1,-1 0,-2 0,-1 1,-1 2,0 1,0 1,1 0,2z"/>
     </g>
     <g>
      <path class="fil9" d="M214 262c-2,2 -5,3 -7,1 -2,-2 -2,-5 0,-7 2,-2 5,-2 6,0 2,2 3,5 1,6z"/>
      <path class="fil1" d="M213 256c0,-1 -1,-1 -2,-1 0,0 -1,0 -2,1 -2,2 -2,5 0,7 1,0 2,1 2,1 1,0 2,-1 3,-2 2,-1 1,-4 -1,-6z"/>
      <path class="fil10" d="M214 260c-1,1 -2,1 -3,0 0,-1 0,-2 0,-2 1,-1 2,-1 3,0 0,0 0,1 0,2z"/>
     </g>
     <g>
      <path class="fil9" d="M219 268c-2,2 -5,3 -7,1 -2,-2 -2,-5 0,-7 2,-2 5,-2 6,0 2,1 3,4 1,6z"/>
      <path class="fil1" d="M218 262c0,-1 -1,-1 -2,-1 -1,0 -1,0 -2,1 -2,2 -2,5 0,7 1,0 2,1 2,1 1,0 2,-1 3,-2 2,-2 1,-5 -1,-6z"/>
      <path class="fil10" d="M219 266c-1,1 -2,1 -3,0 0,-1 0,-2 0,-2 1,-1 2,-1 3,-1 0,1 0,2 0,3z"/>
     </g>
     <g>
      <path class="fil9" d="M215 275c-2,2 -5,2 -7,0 -2,-1 -2,-4 0,-6 1,-2 4,-3 6,-1 2,2 3,5 1,7z"/>
      <path class="fil1" d="M214 268c0,0 -1,-1 -2,-1 -1,0 -1,1 -2,2 -2,2 -2,5 0,6 1,1 2,1 2,1 1,0 2,0 3,-1 2,-2 1,-5 -1,-7z"/>
      <path class="fil10" d="M215 272c-1,1 -2,1 -3,1 0,-1 0,-2 0,-3 1,-1 2,-1 3,0 0,1 0,2 0,2z"/>
     </g>
     <g>
      <path class="fil9" d="M206 268c-2,2 -5,2 -7,0 -2,-1 -2,-4 0,-6 2,-2 5,-2 7,-1 2,2 2,5 0,7z"/>
      <path class="fil1" d="M206 261c-1,0 -2,-1 -2,-1 -1,1 -2,1 -3,2 -1,2 -1,5 1,6 0,1 1,1 2,2 1,-1 1,-1 2,-2 2,-2 2,-5 0,-7z"/>
      <path class="fil10" d="M206 266c-1,0 -2,0 -2,0 -1,-1 -1,-2 0,-3 0,0 1,0 2,0 1,1 1,2 0,3z"/>
     </g>
     <g>
      <path class="fil9" d="M211 270c-1,2 -4,2 -6,0 -2,-2 -2,-5 -1,-7 2,-2 5,-2 7,0 2,2 2,5 0,7z"/>
      <path class="fil1" d="M211 263c-1,-1 -1,-1 -2,-1 -1,0 -2,0 -2,1 -2,2 -2,5 0,7 0,0 1,1 2,1 1,0 2,-1 2,-1 2,-2 2,-5 0,-7z"/>
      <path class="fil10" d="M211 267c0,1 -1,1 -2,0 -1,0 -1,-2 0,-2 0,-1 1,-1 2,0 1,0 1,1 0,2z"/>
     </g>
     <g>
      <path class="fil9" d="M201 263c-1,2 -4,3 -6,1 -2,-2 -2,-5 -1,-7 2,-2 5,-2 7,0 2,2 2,5 0,6z"/>
      <path class="fil1" d="M201 257c-1,-1 -1,-1 -2,-1 -1,0 -2,0 -2,1 -2,2 -2,5 0,7 1,0 1,1 2,1 1,0 2,-1 2,-2 2,-1 2,-4 0,-6z"/>
      <path class="fil10" d="M201 261c0,1 -1,1 -2,0 -1,-1 -1,-2 0,-2 0,-1 2,-1 2,0 1,0 1,1 0,2z"/>
     </g>
     <g>
      <path class="fil9" d="M209 260c-2,2 -5,2 -7,1 -2,-2 -2,-5 0,-7 1,-2 4,-2 6,0 2,1 2,4 1,6z"/>
      <path class="fil1" d="M208 254c0,-1 -1,-1 -2,-2 -1,1 -2,1 -2,2 -2,2 -2,5 0,7 1,0 2,0 2,1 1,-1 2,-1 3,-2 1,-2 1,-5 -1,-6z"/>
      <path class="fil10" d="M209 258c-1,0 -2,0 -3,0 0,-1 -1,-2 0,-3 1,0 2,0 2,0 1,1 1,2 1,3z"/>
     </g>
     <g>
      <path class="fil9" d="M206 256c-2,2 -5,2 -7,0 -2,-2 -2,-5 -1,-7 2,-2 5,-2 7,0 2,2 2,5 1,7z"/>
      <path class="fil1" d="M205 249c0,-1 -1,-1 -2,-1 -1,0 -2,1 -2,1 -2,2 -2,5 0,7 1,1 1,1 2,1 1,0 2,-1 3,-1 1,-2 1,-5 -1,-7z"/>
      <path class="fil10" d="M205 253c0,1 -1,1 -2,0 -1,0 -1,-1 0,-2 1,-1 2,-1 2,0 1,0 1,1 0,2z"/>
     </g>
     <g>
      <path class="fil9" d="M196 258c-2,2 -5,2 -7,0 -2,-2 -2,-5 0,-7 1,-2 4,-2 6,0 2,2 2,5 1,7z"/>
      <path class="fil1" d="M195 251c0,-1 -1,-1 -2,-1 -1,0 -2,1 -2,1 -2,2 -2,5 0,7 1,1 2,1 2,1 1,0 2,-1 3,-1 1,-2 1,-5 -1,-7z"/>
      <path class="fil10" d="M196 255c-1,1 -2,1 -3,0 -1,0 -1,-1 0,-2 1,-1 2,-1 2,0 1,0 1,1 1,2z"/>
     </g>
     <g>
      <path class="fil9" d="M216 255c-2,2 -5,2 -7,0 -2,-2 -2,-5 0,-7 2,-2 5,-2 6,0 2,2 3,5 1,7z"/>
      <path class="fil1" d="M215 248c0,-1 -1,-1 -2,-1 -1,0 -1,0 -2,1 -2,2 -2,5 0,7 1,0 2,1 2,1 1,0 2,-1 3,-1 2,-2 1,-5 -1,-7z"/>
      <path class="fil10" d="M216 252c-1,1 -2,1 -3,0 0,0 0,-2 0,-2 1,-1 2,-1 3,0 0,0 0,1 0,2z"/>
     </g>
     <g>
      <path class="fil9" d="M221 261c-2,2 -5,2 -7,0 -2,-2 -2,-5 0,-7 2,-2 5,-2 7,0 1,2 2,5 0,7z"/>
      <path class="fil1" d="M221 254c-1,-1 -2,-1 -3,-1 0,0 -1,1 -2,1 -2,2 -2,5 0,7 1,1 2,1 2,1 1,0 2,-1 3,-1 2,-2 1,-5 0,-7z"/>
      <path class="fil10" d="M221 258c-1,1 -2,1 -3,0 0,0 0,-1 0,-2 1,-1 2,-1 3,0 0,0 0,1 0,2z"/>
     </g>
     <g>
      <path class="fil9" d="M223 252c-2,2 -5,2 -7,1 -2,-2 -2,-5 0,-7 1,-2 4,-2 6,0 2,1 2,4 1,6z"/>
      <path class="fil1" d="M222 246c0,-1 -1,-1 -2,-2 -1,1 -2,1 -2,2 -2,2 -2,5 0,7 1,0 1,1 2,1 1,0 2,-1 3,-2 1,-2 1,-5 -1,-6z"/>
      <path class="fil10" d="M223 250c-1,0 -2,1 -3,0 -1,-1 -1,-2 0,-3 1,0 2,0 2,0 1,1 1,2 1,3z"/>
     </g>
     <g>
      <path class="fil9" d="M202 255c-2,2 -5,2 -7,1 -2,-2 -2,-5 -1,-7 2,-2 5,-2 7,-1 2,2 2,5 1,7z"/>
      <path class="fil1" d="M201 248c0,0 -1,0 -2,-1 -1,1 -2,1 -2,2 -2,2 -2,5 0,7 1,0 1,0 2,1 1,-1 2,-1 3,-2 1,-2 1,-5 -1,-7z"/>
      <path class="fil10" d="M201 253c0,0 -1,0 -2,0 -1,-1 -1,-2 0,-3 1,0 2,0 2,0 1,1 1,2 0,3z"/>
     </g>
     <g>
      <path class="fil9" d="M211 250c-2,2 -5,2 -7,1 -2,-2 -2,-5 0,-7 2,-2 5,-2 7,0 2,1 2,4 0,6z"/>
      <path class="fil1" d="M211 244c-1,-1 -2,-1 -2,-2 -1,1 -2,1 -3,2 -2,2 -1,5 1,7 0,0 1,1 2,1 0,-1 1,-1 2,-2 2,-2 2,-5 0,-6z"/>
      <path class="fil10" d="M211 248c-1,0 -2,0 -2,0 -1,-1 -1,-2 -1,-3 1,0 2,0 3,0 0,1 1,2 0,3z"/>
     </g>
     <g>
      <path class="fil9" d="M181 278c-2,1 -5,2 -7,0 -2,-2 -2,-5 0,-7 1,-2 4,-2 6,0 2,2 2,5 1,7z"/>
      <path class="fil1" d="M180 271c0,-1 -1,-1 -2,-1 -1,0 -2,0 -2,1 -2,2 -2,5 0,7 1,0 2,1 2,1 1,0 2,-1 3,-1 1,-2 1,-5 -1,-7z"/>
      <path class="fil10" d="M181 275c-1,1 -2,1 -3,0 -1,-1 -1,-2 0,-2 1,-1 2,-1 2,0 1,0 1,1 1,2z"/>
     </g>
     <g>
      <path class="fil9" d="M208 278c-2,2 -5,2 -7,0 -2,-2 -2,-5 0,-7 1,-2 4,-2 6,0 2,2 2,5 1,7z"/>
      <path class="fil1" d="M207 271c0,-1 -1,-1 -2,-1 -1,0 -2,1 -2,1 -2,2 -2,5 0,7 1,1 1,1 2,1 1,0 2,-1 3,-1 1,-2 1,-5 -1,-7z"/>
      <path class="fil10" d="M208 275c-1,1 -2,1 -3,0 -1,0 -1,-1 0,-2 1,-1 2,-1 2,0 1,0 1,1 1,2z"/>
     </g>
     <g>
      <path class="fil9" d="M194 262c-2,2 -5,3 -7,1 -2,-2 -2,-5 0,-7 2,-2 5,-2 7,0 2,1 2,4 0,6z"/>
      <path class="fil1" d="M194 256c-1,-1 -2,-1 -2,-1 -1,0 -2,0 -3,1 -2,2 -1,5 1,7 0,0 1,1 2,1 1,0 1,-1 2,-2 2,-2 2,-5 0,-6z"/>
      <path class="fil10" d="M194 260c-1,1 -2,1 -2,0 -1,-1 -1,-2 -1,-2 1,-1 2,-1 3,-1 1,1 1,2 0,3z"/>
     </g>
     <g>
      <path class="fil9" d="M202 273c-2,2 -5,2 -7,1 -2,-2 -2,-5 0,-7 1,-2 4,-2 6,0 2,1 2,4 1,6z"/>
      <path class="fil1" d="M201 267c0,-1 -1,-1 -2,-2 -1,1 -2,1 -2,2 -2,2 -2,5 0,7 1,0 1,1 2,1 1,0 2,-1 3,-2 1,-2 1,-5 -1,-6z"/>
      <path class="fil10" d="M202 271c-1,0 -2,0 -3,0 -1,-1 -1,-2 0,-3 1,0 2,0 2,0 1,1 1,2 1,3z"/>
     </g>
     <g>
      <path class="fil9" d="M185 261c-1,2 -4,3 -6,1 -2,-2 -2,-5 -1,-7 2,-2 5,-2 7,0 2,1 2,4 0,6z"/>
      <path class="fil1" d="M185 255c-1,-1 -1,-1 -2,-1 -1,0 -2,0 -3,1 -1,2 -1,5 1,7 0,0 1,1 2,1 1,0 2,-1 2,-2 2,-2 2,-5 0,-6z"/>
      <path class="fil10" d="M185 259c0,1 -1,1 -2,0 -1,-1 -1,-2 0,-2 0,-1 1,-1 2,-1 1,1 1,2 0,3z"/>
     </g>
     <g>
      <path class="fil9" d="M212 283c-1,2 -4,2 -6,0 -2,-1 -2,-4 -1,-6 2,-2 5,-3 7,-1 2,2 2,5 0,7z"/>
      <path class="fil1" d="M212 276c-1,0 -1,-1 -2,-1 -1,0 -2,1 -2,2 -2,2 -2,5 0,6 1,1 1,1 2,1 1,0 2,0 2,-1 2,-2 2,-5 0,-7z"/>
      <path class="fil10" d="M212 280c0,1 -1,1 -2,1 -1,-1 -1,-2 0,-3 0,-1 1,-1 2,0 1,1 1,2 0,2z"/>
     </g>
     <g>
      <path class="fil9" d="M219 281c-2,2 -5,3 -7,1 -2,-2 -2,-5 -1,-7 2,-2 5,-2 7,0 2,1 2,5 1,6z"/>
      <path class="fil1" d="M218 275c0,-1 -1,-1 -2,-1 -1,0 -2,0 -2,1 -2,2 -2,5 0,7 1,0 1,1 2,1 1,0 2,-1 3,-2 1,-1 1,-5 -1,-6z"/>
      <path class="fil10" d="M218 279c0,1 -1,1 -2,0 -1,-1 -1,-2 0,-2 1,-1 2,-1 2,-1 1,1 1,2 0,3z"/>
     </g>
     <g>
      <path class="fil9" d="M221 247c-2,2 -5,2 -7,0 -2,-2 -2,-5 0,-7 2,-2 5,-2 7,0 2,2 2,5 0,7z"/>
      <path class="fil1" d="M221 240c-1,-1 -2,-1 -3,-1 0,0 -1,1 -2,1 -2,2 -2,5 0,7 1,1 2,1 3,1 0,0 1,-1 2,-1 2,-2 2,-5 0,-7z"/>
      <path class="fil10" d="M221 244c-1,1 -2,1 -3,0 0,0 0,-1 0,-2 1,-1 2,-1 3,0 0,0 0,1 0,2z"/>
     </g>
     <g>
      <path class="fil9" d="M227 242c-1,2 -4,2 -6,1 -2,-2 -2,-5 -1,-7 2,-2 5,-2 7,0 2,1 2,4 0,6z"/>
      <path class="fil1" d="M227 236c-1,-1 -1,-1 -2,-1 -1,0 -2,0 -2,1 -2,2 -2,5 0,7 1,0 1,1 2,1 1,0 2,-1 2,-2 2,-2 2,-5 0,-6z"/>
      <path class="fil10" d="M227 240c0,0 -1,1 -2,0 -1,-1 -1,-2 0,-2 0,-1 1,-1 2,-1 1,1 1,2 0,3z"/>
     </g>
     <g>
      <path class="fil9" d="M227 248c-2,2 -5,3 -7,1 -2,-2 -2,-5 0,-7 1,-2 4,-2 6,0 2,1 3,4 1,6z"/>
      <path class="fil1" d="M226 242c0,-1 -1,-1 -2,-1 -1,0 -1,0 -2,1 -2,2 -2,5 0,7 1,0 2,1 2,1 1,0 2,-1 3,-2 2,-2 1,-5 -1,-6z"/>
      <path class="fil10" d="M227 246c-1,1 -2,1 -3,0 0,-1 0,-2 0,-2 1,-1 2,-1 3,-1 0,1 0,2 0,3z"/>
     </g>
     <g>
      <path class="fil9" d="M216 248c-1,2 -4,2 -6,1 -2,-2 -2,-5 -1,-7 2,-2 5,-2 7,0 2,1 2,4 0,6z"/>
      <path class="fil1" d="M216 242c-1,-1 -1,-1 -2,-1 -1,0 -2,0 -2,1 -2,2 -2,5 0,7 1,0 1,1 2,1 1,0 2,-1 2,-2 2,-2 2,-5 0,-6z"/>
      <path class="fil10" d="M216 246c0,0 -1,1 -2,0 -1,-1 -1,-2 0,-2 0,-1 2,-1 2,-1 1,1 1,2 0,3z"/>
     </g>
    </g>
    <g>
     <g>
      <path class="fil9" d="M170 317c-2,2 -5,3 -7,1 -2,-2 -2,-5 0,-7 1,-2 4,-2 6,0 2,1 2,4 1,6z"/>
      <path class="fil1" d="M169 311c0,-1 -1,-1 -2,-1 -1,0 -1,0 -2,1 -2,2 -2,5 0,7 1,0 2,1 2,1 1,0 2,-1 3,-2 1,-2 1,-5 -1,-6z"/>
      <path class="fil10" d="M170 315c-1,1 -2,1 -3,0 0,-1 -1,-2 0,-2 1,-1 2,-1 3,-1 0,1 0,2 0,3z"/>
     </g>
     <g>
      <path class="fil9" d="M151 305c-2,2 -5,3 -6,1 -2,-2 -3,-5 -1,-7 2,-2 5,-2 7,0 2,1 2,4 0,6z"/>
      <path class="fil1" d="M151 299c-1,-1 -1,-1 -2,-1 -1,0 -2,0 -3,1 -1,2 -1,5 1,7 0,0 1,1 2,1 1,0 2,-1 2,-2 2,-2 2,-5 0,-6z"/>
      <path class="fil10" d="M151 303c0,1 -2,1 -2,0 -1,-1 -1,-2 0,-2 0,-1 1,-1 2,-1 1,1 1,2 0,3z"/>
     </g>
     <g>
      <path class="fil9" d="M153 313c-2,2 -5,2 -7,0 -1,-2 -2,-5 0,-6 2,-2 5,-3 7,-1 2,2 2,5 0,7z"/>
      <path class="fil1" d="M153 306c-1,0 -2,-1 -2,-1 -1,0 -2,1 -3,1 -1,2 -1,5 1,7 0,1 1,1 2,1 1,0 2,0 2,-1 2,-2 2,-5 0,-7z"/>
      <path class="fil10" d="M153 310c-1,1 -2,1 -2,0 -1,0 -1,-1 0,-2 0,-1 1,-1 2,0 1,1 1,2 0,2z"/>
     </g>
     <g>
      <path class="fil9" d="M156 320c-2,2 -5,3 -7,1 -2,-2 -2,-5 0,-7 2,-2 5,-2 6,0 2,1 3,4 1,6z"/>
      <path class="fil1" d="M155 314c0,-1 -1,-1 -2,-1 0,0 -1,0 -2,1 -2,2 -2,5 0,7 1,0 2,1 2,1 1,0 2,-1 3,-2 2,-2 1,-5 -1,-6z"/>
      <path class="fil10" d="M156 318c-1,1 -2,1 -3,0 0,-1 0,-2 0,-2 1,-1 2,-1 3,-1 0,1 0,2 0,3z"/>
     </g>
     <g>
      <path class="fil9" d="M158 305c-1,2 -4,2 -6,1 -2,-2 -2,-5 -1,-7 2,-2 5,-2 7,-1 2,2 2,5 0,7z"/>
      <path class="fil1" d="M158 298c-1,0 -1,0 -2,-1 -1,1 -2,1 -2,2 -2,2 -2,5 0,7 1,0 1,0 2,1 1,-1 2,-1 2,-2 2,-2 2,-5 0,-7z"/>
      <path class="fil10" d="M158 303c0,0 -1,0 -2,0 -1,-1 -1,-2 0,-3 0,0 1,0 2,0 1,1 1,2 0,3z"/>
     </g>
     <g>
      <path class="fil9" d="M163 312c-2,2 -5,2 -7,0 -2,-1 -2,-4 0,-6 1,-2 4,-2 6,-1 2,2 2,5 1,7z"/>
      <path class="fil1" d="M162 305c0,0 -1,-1 -2,-1 -1,0 -2,1 -2,2 -2,2 -2,5 0,6 1,1 1,1 2,1 1,0 2,0 3,-1 1,-2 1,-5 -1,-7z"/>
      <path class="fil10" d="M163 309c-1,1 -2,1 -3,1 -1,-1 -1,-2 0,-3 1,-1 2,-1 2,0 1,1 1,2 1,2z"/>
     </g>
     <g>
      <path class="fil9" d="M166 305c-1,2 -4,2 -6,0 -2,-1 -2,-4 -1,-6 2,-2 5,-2 7,-1 2,2 2,5 0,7z"/>
      <path class="fil1" d="M166 298c-1,0 -1,-1 -2,-1 -1,1 -2,1 -2,2 -2,2 -2,5 0,6 1,1 1,1 2,2 1,-1 2,-1 2,-2 2,-2 2,-5 0,-7z"/>
      <path class="fil10" d="M166 303c0,0 -1,0 -2,0 -1,-1 -1,-2 0,-3 0,0 2,0 2,0 1,1 1,2 0,3z"/>
     </g>
     <g>
      <path class="fil9" d="M160 318c-2,2 -5,2 -6,1 -2,-2 -3,-5 -1,-7 2,-2 5,-2 7,0 2,1 2,4 0,6z"/>
      <path class="fil1" d="M160 312c-1,-1 -1,-1 -2,-2 -1,1 -2,1 -3,2 -1,2 -1,5 1,7 0,0 1,1 2,1 1,0 2,-1 2,-2 2,-2 2,-5 0,-6z"/>
      <path class="fil10" d="M160 316c0,0 -2,1 -2,0 -1,-1 -1,-2 0,-3 0,0 1,0 2,0 1,1 1,2 0,3z"/>
     </g>
     <g>
      <path class="fil9" d="M166 323c-2,1 -5,2 -7,0 -2,-2 -2,-5 0,-7 2,-2 5,-2 7,0 2,2 2,5 0,7z"/>
      <path class="fil1" d="M166 316c-1,-1 -2,-1 -2,-1 -1,0 -2,0 -3,1 -2,2 -1,5 1,7 0,0 1,1 2,1 0,0 1,-1 2,-1 2,-2 2,-5 0,-7z"/>
      <path class="fil10" d="M166 320c-1,1 -2,1 -2,0 -1,-1 -1,-2 -1,-2 1,-1 2,-1 3,0 0,0 1,1 0,2z"/>
     </g>
     <g>
      <path class="fil9" d="M162 327c-2,2 -5,2 -7,0 -2,-2 -2,-5 0,-7 2,-2 5,-2 7,0 2,2 2,5 0,7z"/>
      <path class="fil1" d="M162 320c-1,0 -2,-1 -2,-1 -1,0 -2,1 -3,1 -1,2 -1,5 1,7 0,1 1,1 2,1 1,0 1,0 2,-1 2,-2 2,-5 0,-7z"/>
      <path class="fil10" d="M162 324c-1,1 -2,1 -2,0 -1,0 -1,-1 0,-2 0,-1 1,-1 2,0 1,0 1,2 0,2z"/>
     </g>
     <g>
      <path class="fil9" d="M170 329c-2,2 -5,3 -7,1 -2,-2 -2,-5 -1,-7 2,-2 5,-2 7,0 2,1 2,4 1,6z"/>
      <path class="fil1" d="M169 323c0,-1 -1,-1 -2,-1 -1,0 -2,0 -2,1 -2,2 -2,5 0,7 1,0 1,1 2,1 1,0 2,-1 3,-2 1,-2 1,-5 -1,-6z"/>
      <path class="fil10" d="M169 327c0,1 -1,1 -2,0 -1,-1 -1,-2 0,-2 1,-1 2,-1 2,-1 1,1 1,2 0,3z"/>
     </g>
     <g>
      <path class="fil9" d="M177 328c-1,2 -4,2 -6,0 -2,-1 -2,-4 -1,-6 2,-2 5,-3 7,-1 2,2 2,5 0,7z"/>
      <path class="fil1" d="M177 321c-1,0 -1,-1 -2,-1 -1,0 -2,1 -2,2 -2,2 -2,5 0,6 1,1 1,1 2,1 1,0 2,0 2,-1 2,-2 2,-5 0,-7z"/>
      <path class="fil10" d="M177 325c0,1 -1,1 -2,1 -1,-1 -1,-2 0,-3 0,-1 1,-1 2,0 1,1 1,2 0,2z"/>
     </g>
     <g>
      <path class="fil9" d="M173 321c-1,2 -4,3 -6,1 -2,-2 -2,-5 -1,-7 2,-2 5,-2 7,0 2,1 2,4 0,6z"/>
      <path class="fil1" d="M173 315c-1,-1 -1,-1 -2,-1 -1,0 -2,0 -2,1 -2,2 -2,5 0,7 0,0 1,1 2,1 1,0 2,-1 2,-2 2,-2 2,-5 0,-6z"/>
      <path class="fil10" d="M173 319c0,1 -1,1 -2,0 -1,-1 -1,-2 0,-2 0,-1 1,-1 2,-1 1,1 1,2 0,3z"/>
     </g>
     <g>
      <path class="fil9" d="M186 327c-2,2 -5,2 -7,0 -2,-2 -2,-5 0,-7 1,-2 4,-2 6,0 2,2 2,5 1,7z"/>
      <path class="fil1" d="M185 320c0,-1 -1,-1 -2,-1 -1,0 -1,1 -2,1 -2,2 -2,5 0,7 1,1 2,1 2,1 1,0 2,-1 3,-1 1,-2 1,-5 -1,-7z"/>
      <path class="fil10" d="M186 324c-1,1 -2,1 -3,0 0,0 -1,-1 0,-2 1,-1 2,-1 3,0 0,0 0,1 0,2z"/>
     </g>
     <g>
      <path class="fil9" d="M189 319c-1,2 -4,2 -6,0 -2,-1 -3,-4 -1,-6 2,-2 5,-2 7,-1 2,2 2,5 0,7z"/>
      <path class="fil1" d="M189 312c-1,0 -1,-1 -2,-1 -1,0 -2,1 -3,2 -1,2 -1,5 1,6 0,1 1,1 2,1 1,0 2,0 2,-1 2,-2 2,-5 0,-7z"/>
      <path class="fil10" d="M189 316c0,1 -1,1 -2,1 -1,-1 -1,-2 0,-3 0,0 1,-1 2,0 1,1 1,2 0,2z"/>
     </g>
     <g>
      <path class="fil9" d="M186 313c-2,2 -5,2 -7,0 -2,-1 -2,-4 -1,-6 2,-2 5,-3 7,-1 2,2 2,5 1,7z"/>
      <path class="fil1" d="M185 306c0,0 -1,-1 -2,-1 -1,0 -2,1 -2,2 -2,2 -2,5 0,6 1,1 1,1 2,1 1,0 2,0 3,-1 1,-2 1,-5 -1,-7z"/>
      <path class="fil10" d="M185 310c0,1 -1,1 -2,1 -1,-1 -1,-2 0,-3 1,-1 2,-1 2,0 1,1 1,2 0,2z"/>
     </g>
     <g>
      <path class="fil9" d="M177 314c-2,2 -5,2 -7,1 -2,-2 -2,-5 0,-7 1,-2 4,-2 6,0 2,1 2,4 1,6z"/>
      <path class="fil1" d="M176 308c0,-1 -1,-1 -2,-1 -1,0 -2,0 -2,1 -2,2 -2,5 0,7 1,0 1,1 2,1 1,0 2,-1 3,-2 1,-2 1,-5 -1,-6z"/>
      <path class="fil10" d="M177 312c-1,1 -2,1 -3,0 -1,-1 -1,-2 0,-2 1,-1 2,-1 2,-1 1,1 1,2 1,3z"/>
     </g>
     <g>
      <path class="fil9" d="M163 299c-2,2 -5,2 -7,0 -2,-1 -2,-4 0,-6 2,-2 5,-2 7,-1 2,2 2,5 0,7z"/>
      <path class="fil1" d="M163 292c-1,0 -2,-1 -2,-1 -1,1 -2,1 -3,2 -2,2 -1,5 1,6 0,1 1,1 2,2 1,-1 1,-1 2,-2 2,-2 2,-5 0,-7z"/>
      <path class="fil10" d="M163 297c-1,0 -2,0 -2,0 -1,-1 -1,-2 -1,-3 1,0 2,0 3,0 1,1 1,2 0,3z"/>
     </g>
     <g>
      <path class="fil9" d="M171 310c-2,2 -5,2 -7,0 -2,-1 -2,-4 -1,-6 2,-2 5,-3 7,-1 2,2 2,5 1,7z"/>
      <path class="fil1" d="M170 303c0,0 -1,-1 -2,-1 -1,0 -2,1 -2,2 -2,2 -2,5 0,6 1,1 1,1 2,1 1,0 2,0 3,-1 1,-2 1,-5 -1,-7z"/>
      <path class="fil10" d="M170 307c0,1 -1,1 -2,1 -1,-1 -1,-2 0,-3 1,-1 2,-1 2,0 1,1 1,2 0,2z"/>
     </g>
     <g>
      <path class="fil9" d="M154 298c-1,2 -4,2 -6,0 -2,-1 -2,-4 -1,-6 2,-2 5,-2 7,-1 2,2 2,5 0,7z"/>
      <path class="fil1" d="M154 291c-1,0 -1,-1 -2,-1 -1,1 -2,1 -3,2 -1,2 -1,5 1,6 0,1 1,1 2,2 1,-1 2,-1 2,-2 2,-2 2,-5 0,-7z"/>
      <path class="fil10" d="M154 296c0,0 -1,0 -2,0 -1,-1 -1,-2 0,-3 0,0 1,-1 2,0 1,1 1,2 0,3z"/>
     </g>
     <g>
      <path class="fil9" d="M181 320c-1,2 -4,2 -6,0 -2,-2 -2,-5 -1,-7 2,-2 5,-2 7,0 2,2 2,5 0,7z"/>
      <path class="fil1" d="M181 313c-1,-1 -1,-1 -2,-1 -1,0 -2,1 -2,1 -2,2 -2,5 0,7 1,1 1,1 2,1 1,0 2,-1 2,-1 2,-2 2,-5 0,-7z"/>
      <path class="fil10" d="M181 317c0,1 -1,1 -2,0 -1,0 -1,-1 0,-2 0,-1 1,-1 2,0 1,0 1,1 0,2z"/>
     </g>
    </g>
   </g>
  </g>
 </g>
</svg>
